<svg width="1534" height="64" viewBox="0 0 1534 64" fill="none" xmlns="http://www.w3.org/2000/svg">
    <path fill-rule="evenodd" clip-rule="evenodd" d="M841.689 3.14084C836.383 0.287366 830.001 0.277882 824.686 3.11557L796.517 18.156C780.004 26.973 786.248 52.0066 804.968 52.0344L861.262 52.1181C879.982 52.1459 886.301 27.131 869.814 18.265L841.689 3.14084ZM955.663 58.902C960.99 61.7517 967.373 61.7566 972.667 58.915L1000.73 43.8533C1017.18 35.0245 1010.75 9.996 992.032 9.98167L935.735 9.93856C917.016 9.92423 910.877 34.9431 927.428 43.7972L955.663 58.902ZM558.887 3.80766C564.202 0.969979 570.584 0.979463 575.89 3.83294L604.014 18.9571C620.502 27.8231 614.182 52.838 595.463 52.8102L539.169 52.7265C520.449 52.6987 514.204 27.6651 530.717 18.8481L558.887 3.80766ZM689.864 59.5941C695.191 62.4438 701.573 62.4487 706.867 59.6071L734.929 44.5454C751.378 35.7166 744.953 10.6881 726.233 10.6738L669.936 10.6307C651.216 10.6163 645.078 35.6352 661.629 44.4893L689.864 59.5941ZM297.75 2.87464C303.065 0.0369601 309.447 0.0464448 314.753 2.89992L342.878 18.024C359.365 26.8901 353.046 51.905 334.326 51.8772L278.032 51.7935C259.312 51.7657 253.067 26.7321 269.581 17.9151L297.75 2.87464ZM428.727 58.661C434.054 61.5108 440.436 61.5157 445.731 58.6741L473.792 43.6124C490.242 34.7836 483.816 9.75508 465.096 9.74075L408.799 9.69764C390.08 9.68331 383.941 34.7022 400.492 43.5563L428.727 58.661ZM1085.84 4.31726C1091.16 1.47957 1097.54 1.48906 1102.85 4.34253L1130.97 19.4666C1147.46 28.3327 1141.14 53.3476 1122.42 53.3198L1066.12 53.2361C1047.4 53.2083 1041.16 28.1747 1057.67 19.3577L1085.84 4.31726ZM1216.82 60.1037C1222.15 62.9534 1228.53 62.9583 1233.82 60.1167L1261.88 45.055C1278.33 36.2262 1271.91 11.1977 1253.19 11.1834L1196.89 11.1403C1178.17 11.1259 1172.03 36.1448 1188.58 44.9989L1216.82 60.1037ZM38.4617 2.799C43.7764 -0.0386865 50.1584 -0.0292019 55.4647 2.82427L83.5893 17.9484C100.076 26.8144 93.7573 51.8294 75.0375 51.8015L18.7434 51.7179C0.0235587 51.69 -6.22118 26.6564 10.2922 17.8394L38.4617 2.799ZM169.439 58.5854C174.766 61.4351 181.148 61.44 186.442 58.5984L214.504 43.5368C230.953 34.7079 224.527 9.67943 205.808 9.6651L149.511 9.62199C130.791 9.60766 124.653 34.6265 141.204 43.4806L169.439 58.5854ZM1347.92 5.24781C1353.24 2.41012 1359.62 2.41961 1364.92 5.27308L1393.05 20.3972C1409.54 29.2632 1403.22 54.2782 1384.5 54.2503L1328.2 54.1667C1309.48 54.1388 1303.24 29.1052 1319.75 20.2883L1347.92 5.24781ZM1478.9 61.0342C1484.22 63.8839 1490.61 63.8888 1495.9 61.0472L1523.96 45.9856C1540.41 37.1567 1533.99 12.1282 1515.27 12.1139L1458.97 12.0708C1440.25 12.0565 1434.11 37.0753 1450.66 45.9294L1478.9 61.0342Z" fill="#01204E"/>
</svg>
