<svg width="562" height="472" viewBox="0 0 562 472" fill="none" xmlns="http://www.w3.org/2000/svg">
        <path d="M561.976 235.5C562.097 295.162 518.559 352.688 471.622 396.393C424.686 440.098 360.35 466.76 291.613 470.992C222.875 475.224 154.859 456.711 101.306 419.193C47.7533 381.675 12.6553 327.948 3.10301 268.867C-6.44931 209.786 10.2561 149.756 49.8442 100.902C89.4324 52.0491 148.952 18.0152 216.379 5.67643C283.806 -6.66236 354.114 3.61371 413.099 34.4286C472.084 65.2435 525.478 82.1391 544.282 139.527L490.728 182.375C475.045 134.51 438.959 93.5946 389.763 67.8934C340.567 42.1922 281.926 33.6215 225.689 43.9126C169.451 54.2038 119.808 82.5898 86.79 123.336C53.7714 164.082 39.8383 214.151 47.8054 263.427C55.7725 312.704 85.046 357.514 129.712 388.806C174.378 420.098 231.106 435.539 288.437 432.009C345.768 428.48 399.427 406.242 438.574 369.79C477.722 333.338 499.439 285.387 499.338 235.627L561.976 235.5Z" fill="#01204E"/>
    </svg>
