<svg width="505" height="20" viewBox="0 0 505 20" fill="none" xmlns="http://www.w3.org/2000/svg">
<path d="M242.922 0.333984C240.467 0.333984 238.92 2.03906 238.92 4.76953C238.92 7.49414 240.443 9.21094 242.922 9.21094C245.389 9.21094 246.918 7.49414 246.918 4.76953C246.918 2.03906 245.383 0.333984 242.922 0.333984ZM242.922 1.64062C244.422 1.64062 245.377 2.85352 245.377 4.76953C245.377 6.67383 244.428 7.9043 242.922 7.9043C241.398 7.9043 240.467 6.67383 240.467 4.76953C240.467 2.85352 241.422 1.64062 242.922 1.64062ZM250.164 5.81836H251.84L253.498 9H255.227L253.381 5.58984C254.389 5.22656 254.975 4.29492 254.975 3.17578C254.975 1.55859 253.861 0.544922 252.086 0.544922H248.652V9H250.164V5.81836ZM250.164 1.76953H251.875C252.836 1.76953 253.422 2.31445 253.422 3.20508C253.422 4.11328 252.871 4.63477 251.91 4.63477H250.164V1.76953Z" fill="black" fill-opacity="0.4"/>
<path d="M1 19.5H199" stroke="black" stroke-opacity="0.2" stroke-width="0.33" stroke-linecap="square"/>
<path d="M306 19.5H504" stroke="black" stroke-opacity="0.2" stroke-width="0.33" stroke-linecap="square"/>
</svg>
